<svg width="24" height="25" viewBox="0 0 24 25" fill="none" xmlns="http://www.w3.org/2000/svg">
<path fill-rule="evenodd" clip-rule="evenodd" d="M7.75319 11.9124V5.16245H16.246V11.9124C16.246 12.8373 15.8778 13.7244 15.2224 14.3784C14.5669 15.0324 13.678 15.3998 12.751 15.3998H11.2482C10.3213 15.3998 9.43229 15.0324 8.77685 14.3784C8.12141 13.7244 7.75319 12.8373 7.75319 11.9124ZM6.58819 4.77497C6.58819 4.56943 6.67002 4.37232 6.81567 4.22698C6.96133 4.08165 7.15888 4 7.36486 4H16.6344C16.8403 4 17.0379 4.08165 17.1835 4.22698C17.3292 4.37232 17.411 4.56943 17.411 4.77497V6.27376H20.2622C20.4579 6.27376 20.6455 6.35132 20.7839 6.48939C20.9223 6.62746 21 6.81472 21 7.00998V10.037C21 11.0133 20.6113 11.9496 19.9195 12.6399C19.2276 13.3303 18.2893 13.7181 17.3108 13.7181H17.0468C16.6907 14.5612 16.0932 15.2808 15.3293 15.7869C14.5653 16.2929 13.6688 16.5629 12.7518 16.563H12.5825V18.8375H15.0057C15.1602 18.8375 15.3083 18.8988 15.4176 19.0078C15.5268 19.1168 15.5882 19.2646 15.5882 19.4188C15.5882 19.5729 15.5268 19.7208 15.4176 19.8298C15.3083 19.9388 15.1602 20 15.0057 20H8.9943C8.83982 20 8.69165 19.9388 8.58242 19.8298C8.47318 19.7208 8.41181 19.5729 8.41181 19.4188C8.41181 19.2646 8.47318 19.1168 8.58242 19.0078C8.69165 18.8988 8.83982 18.8375 8.9943 18.8375H11.4175V16.5622H11.249C10.3318 16.5622 9.435 16.2922 8.67088 15.786C7.90677 15.2798 7.30928 14.56 6.95323 13.7166H6.68916C5.71073 13.7166 4.77238 13.3287 4.08053 12.6384C3.38868 11.948 3 11.0117 3 10.0355V7.00998C3 6.81472 3.07774 6.62746 3.21611 6.48939C3.35448 6.35132 3.54215 6.27376 3.73783 6.27376H6.58897V4.77497H6.58819ZM6.58819 7.43621V11.9124C6.58819 12.1302 6.60373 12.3449 6.63246 12.5549C5.97275 12.5403 5.345 12.2685 4.88365 11.7977C4.42231 11.327 4.16406 10.6947 4.16422 10.0362V7.43621H6.58819ZM17.3675 12.5549C18.0271 12.5401 18.6547 12.2682 19.1158 11.7975C19.577 11.3267 19.8352 10.6945 19.835 10.0362V7.43621H17.4118V11.9124C17.4118 12.1302 17.3963 12.3449 17.3675 12.5549Z" fill="white"/>
</svg>
