<svg width="24" height="25" viewBox="0 0 24 25" fill="none" xmlns="http://www.w3.org/2000/svg">
<path d="M4 7.86207C4 7.38621 4.39822 7 4.88889 7H15.5556C16.7343 7 17.8648 7.45412 18.6983 8.26247C19.5317 9.07082 20 10.1672 20 11.3103V12.6897C20 13.8328 19.5317 14.9292 18.6983 15.7375C17.8648 16.5459 16.7343 17 15.5556 17H4.88889C4.39822 17 4 16.6138 4 16.1379V7.86207Z" stroke="white" stroke-width="1.5"/>
<path d="M4.51 8C4.51 7.54 4.8908 7.16667 5.36 7.16667H8.42C9.54717 7.16667 10.6282 7.60565 11.4252 8.38706C12.2222 9.16846 12.67 10.2283 12.67 11.3333V12.6667C12.67 13.7717 12.2222 14.8315 11.4252 15.6129C10.6282 16.3943 9.54717 16.8333 8.42 16.8333H5.36C4.8908 16.8333 4.51 16.46 4.51 16V8Z" stroke="white" stroke-width="1.5"/>
<path d="M8.08 11.3967H8.2806C8.48502 11.3967 8.68107 11.4763 8.82562 11.618C8.97017 11.7597 9.05138 11.9519 9.05138 12.1523C9.05138 12.3527 8.97017 12.545 8.82562 12.6867C8.68107 12.8284 8.48502 12.908 8.2806 12.908H8.08V11.3967ZM15.22 11.3967H15.4206C15.625 11.3967 15.8211 11.4763 15.9656 11.618C16.1102 11.7597 16.1914 11.9519 16.1914 12.1523C16.1914 12.3527 16.1102 12.545 15.9656 12.6867C15.8211 12.8284 15.625 12.908 15.4206 12.908H15.22V11.3967Z" stroke="white" stroke-width="1.714"/>
</svg>
