<svg width="24" height="25" viewBox="0 0 24 25" fill="none" xmlns="http://www.w3.org/2000/svg">
<path fill-rule="evenodd" clip-rule="evenodd" d="M12 5.23077C10.2047 5.23077 8.48291 5.94395 7.21343 7.21343C5.94395 8.48291 5.23077 10.2047 5.23077 12C5.23077 13.7953 5.94395 15.5171 7.21343 16.7866C8.48291 18.056 10.2047 18.7692 12 18.7692C13.7953 18.7692 15.5171 18.056 16.7866 16.7866C18.056 15.5171 18.7692 13.7953 18.7692 12C18.7692 10.2047 18.056 8.48291 16.7866 7.21343C15.5171 5.94395 13.7953 5.23077 12 5.23077ZM4 12C4 7.58154 7.58154 4 12 4C16.4185 4 20 7.58154 20 12C20 16.4185 16.4185 20 12 20C7.58154 20 4 16.4185 4 12ZM12 7.28205C12.1632 7.28205 12.3197 7.34689 12.4351 7.46229C12.5505 7.5777 12.6154 7.73423 12.6154 7.89744V8.14687C13.417 8.26338 14.1391 8.608 14.5969 9.13477C14.704 9.25805 14.7577 9.41881 14.7462 9.58169C14.7348 9.74456 14.6591 9.89622 14.5358 10.0033C14.4125 10.1103 14.2518 10.1641 14.0889 10.1526C13.926 10.1411 13.7743 10.0654 13.6673 9.94215C13.4671 9.71077 13.0978 9.49744 12.6154 9.39569V11.4289C13.1651 11.5085 13.6714 11.6948 14.0816 11.9688C14.6371 12.3389 15.0769 12.9182 15.0769 13.641C15.0769 14.3639 14.6371 14.9432 14.0816 15.3132C13.6714 15.5873 13.1651 15.7727 12.6154 15.8531V16.1026C12.6154 16.2658 12.5505 16.4223 12.4351 16.5377C12.3197 16.6531 12.1632 16.7179 12 16.7179C11.8368 16.7179 11.6803 16.6531 11.5649 16.5377C11.4495 16.4223 11.3846 16.2658 11.3846 16.1026V15.8531C10.583 15.7366 9.86092 15.392 9.40308 14.8644C9.34731 14.8038 9.30428 14.7326 9.27653 14.6551C9.24878 14.5776 9.23687 14.4952 9.24151 14.413C9.24616 14.3308 9.26726 14.2503 9.30356 14.1764C9.33987 14.1025 9.39064 14.0366 9.45287 13.9827C9.5151 13.9288 9.58753 13.8879 9.66585 13.8624C9.74418 13.837 9.82681 13.8275 9.90886 13.8346C9.99091 13.8417 10.0707 13.8652 10.1435 13.9037C10.2163 13.9422 10.2807 13.9949 10.3327 14.0587C10.5329 14.2892 10.9022 14.5026 11.3846 14.6043V12.5711C10.8621 12.5013 10.3614 12.3169 9.91836 12.0312C9.36287 11.6611 8.92308 11.0818 8.92308 10.359C8.92308 9.6361 9.36287 9.05682 9.91836 8.68677C10.3286 8.41272 10.8349 8.22728 11.3846 8.14687V7.89744C11.3846 7.73423 11.4495 7.5777 11.5649 7.46229C11.6803 7.34689 11.8368 7.28205 12 7.28205ZM11.3846 9.39569C11.0736 9.46133 10.8062 9.57374 10.601 9.71077C10.2646 9.93395 10.1538 10.1752 10.1538 10.359C10.1538 10.5419 10.2654 10.784 10.601 11.0072C10.8062 11.1442 11.0736 11.2566 11.3846 11.3223V9.39569ZM12.6154 12.6777V14.6043C12.9264 14.5387 13.1938 14.4263 13.399 14.2892C13.7354 14.0661 13.8462 13.8248 13.8462 13.641C13.8462 13.4581 13.7346 13.216 13.399 12.9928C13.1599 12.8396 12.894 12.7327 12.6154 12.6777Z" fill="white"/>
</svg>
