<svg width="24" height="25" viewBox="0 0 24 25" fill="none" xmlns="http://www.w3.org/2000/svg">
<path fill-rule="evenodd" clip-rule="evenodd" d="M11.6045 3.13594C11.722 3.04088 11.8694 2.99285 12.0191 3.00086C12.1689 3.00888 12.3106 3.07239 12.4176 3.17947C13.3005 4.06192 14.2023 4.67896 15.0958 5.27256L15.2624 5.38391C16.0886 5.9323 16.9272 6.48822 17.6542 7.2208C18.3974 7.96577 18.9876 8.85442 19.3904 9.83482C19.7932 10.8152 20.0004 11.8677 20 12.9307C20.0002 13.9935 19.7928 15.0457 19.3901 16.0258C18.9873 17.0058 18.3972 17.8942 17.6542 18.639C14.5305 21.787 9.46954 21.787 6.34585 18.639C5.60277 17.8941 5.01262 17.0056 4.60984 16.0253C4.20707 15.0451 3.99975 13.9928 4 12.9299C4 10.8628 4.78277 8.79564 6.34585 7.2208C6.41779 7.14816 6.50619 7.09476 6.6032 7.06531C6.70022 7.03586 6.80285 7.03128 6.90201 7.05198C7.00117 7.07268 7.09379 7.11802 7.17168 7.18398C7.24956 7.24994 7.3103 7.33448 7.34851 7.43011V7.43262V7.43095L7.35015 7.43513L7.36492 7.46862C7.38051 7.50211 7.40513 7.55318 7.44123 7.62016C7.51344 7.75412 7.62995 7.94752 7.79815 8.16939C8.0041 8.43981 8.288 8.75043 8.66626 9.04597C8.84185 7.18313 9.52779 4.81961 11.6037 3.1351L11.6045 3.13594ZM6.67159 8.72615C5.65204 10.0311 5.14283 11.6754 5.2424 13.3412C5.34197 15.007 6.04325 16.576 7.21067 17.7448C9.85518 20.4097 14.1448 20.4097 16.7893 17.7448C17.4165 17.1167 17.9147 16.3673 18.2547 15.5404C18.5946 14.7135 18.7696 13.8258 18.7692 12.9291C18.7696 12.0324 18.5946 11.1446 18.2547 10.3177C17.9147 9.49079 17.4165 8.74138 16.7893 8.11329C16.1543 7.47365 15.415 6.98303 14.5625 6.41622L14.423 6.32412C13.6517 5.8109 12.8115 5.24158 11.9696 4.47133C10.2334 6.14496 9.84615 8.47582 9.84615 10.1386C9.84608 10.2453 9.81935 10.3502 9.76849 10.4435C9.71762 10.5368 9.6443 10.6152 9.55544 10.6716C9.46659 10.7279 9.36514 10.7601 9.26066 10.7653C9.15619 10.7705 9.05215 10.7484 8.95836 10.7012C8.04754 10.2459 7.26177 9.5678 6.67159 8.72615ZM11.4306 10.8653C11.4723 10.7408 11.5514 10.6329 11.6565 10.5567C11.7616 10.4806 11.8875 10.44 12.0164 10.4408C12.9056 10.4435 13.7583 10.8021 14.391 11.4396C14.7058 11.7554 14.9559 12.1319 15.1267 12.5474C15.2974 12.9628 15.3853 13.4088 15.3853 13.8592C15.3853 14.3097 15.2974 14.7557 15.1267 15.1711C14.9559 15.5865 14.7058 15.9631 14.391 16.2788C13.7533 16.919 12.8946 17.2778 12 17.2778C11.1054 17.2778 10.2467 16.919 9.60903 16.2788C9.29428 15.963 9.04431 15.5864 8.87371 15.171C8.70311 14.7556 8.6153 14.3097 8.61538 13.8592C8.61538 13.6927 8.68022 13.533 8.79563 13.4152C8.91103 13.2975 9.06756 13.2313 9.23077 13.2313H10.6371L11.4314 10.8653H11.4306ZM12.4382 11.741L11.6587 14.0627C11.6171 14.1865 11.5387 14.2939 11.4344 14.37C11.3301 14.4461 11.2051 14.4871 11.0769 14.4872H9.93805C10.0365 14.8154 10.2154 15.1251 10.4747 15.3863C10.882 15.7941 11.4298 16.0226 12.0004 16.0226C12.571 16.0226 13.1189 15.7941 13.5262 15.3863C13.7253 15.1874 13.8835 14.9499 13.9915 14.6877C14.0995 14.4256 14.1552 14.144 14.1552 13.8596C14.1552 13.5753 14.0995 13.2937 13.9915 13.0316C13.8835 12.7694 13.7253 12.5319 13.5262 12.333C13.2278 12.0316 12.8496 11.8259 12.4382 11.741Z" fill="white"/>
</svg>
