<svg width="24" height="25" viewBox="0 0 24 25" fill="none" xmlns="http://www.w3.org/2000/svg">
<path fill-rule="evenodd" clip-rule="evenodd" d="M12.9908 4.03294C13.0949 4.07198 13.185 4.14337 13.2486 4.23738C13.3122 4.3314 13.3462 4.44345 13.3461 4.55827V9.78785H18.4615C18.5637 9.78784 18.6637 9.81796 18.75 9.8747C18.8363 9.93143 18.9052 10.0124 18.9487 10.1083C18.9922 10.2041 19.0086 10.3107 18.9958 10.4158C18.983 10.5209 18.9416 10.62 18.8765 10.7016L11.6073 19.7975C11.5366 19.8862 11.4412 19.95 11.3341 19.9803C11.2271 20.0106 11.1136 20.0059 11.0093 19.9668C10.9049 19.9277 10.8148 19.8561 10.7511 19.7619C10.6875 19.6677 10.6535 19.5554 10.6539 19.4404V14.2108H5.5385C5.43632 14.2108 5.33625 14.1807 5.24998 14.124C5.1637 14.0672 5.09478 13.9862 5.05127 13.8904C5.00776 13.7946 4.99144 13.6879 5.00424 13.5828C5.01703 13.4778 5.05841 13.3787 5.12353 13.297L12.3927 4.20259C12.4633 4.11403 12.5586 4.05021 12.6655 4.01984C12.7724 3.98948 12.8857 3.99405 12.99 4.03294H12.9908ZM6.6829 13.0946H11.1916C11.3344 13.0946 11.4714 13.1534 11.5723 13.2581C11.6733 13.3628 11.7301 13.5047 11.7301 13.6527V17.8919L17.3157 10.904H12.807C12.6642 10.904 12.5272 10.8452 12.4262 10.7405C12.3252 10.6359 12.2685 10.4939 12.2685 10.3459V6.10601L6.6829 13.0939V13.0946Z" fill="white"/>
</svg>
