<svg width="24" height="25" viewBox="0 0 24 25" fill="none" xmlns="http://www.w3.org/2000/svg">
<path fill-rule="evenodd" clip-rule="evenodd" d="M13.7912 6.58573L12.5935 7.82089C12.5171 7.89981 12.425 7.96267 12.3228 8.00562C12.2207 8.04858 12.1107 8.07073 11.9995 8.07073C11.8884 8.07073 11.7784 8.04858 11.6762 8.00562C11.5741 7.96267 11.482 7.89981 11.4056 7.82089L10.2078 6.58573C8.93319 5.27136 6.88459 5.27136 5.60994 6.58573C4.31157 7.92409 4.31157 10.1112 5.60994 11.4496L11.9995 18.0374L18.3891 11.4496C19.6875 10.1112 19.6875 7.92409 18.3891 6.58573C17.1145 5.27136 15.0659 5.27136 13.7912 6.58573ZM12.605 5.48496C14.5251 3.50501 17.6569 3.50501 19.5771 5.48496C21.4743 7.4409 21.4743 10.5944 19.5771 12.5504L12.5943 19.7502C12.5179 19.8291 12.4258 19.8919 12.3237 19.9349C12.2215 19.9778 12.1115 20 12.0004 20C11.8892 20 11.7792 19.9778 11.6771 19.9349C11.5749 19.8919 11.4828 19.8291 11.4064 19.7502L4.42365 12.5504C2.52559 10.5944 2.52559 7.4409 4.42283 5.48496C6.34298 3.50501 9.47479 3.50501 11.3949 5.48496L11.9995 6.10894L12.605 5.48496Z" fill="white"/>
</svg>
