<svg width="24" height="25" viewBox="0 0 24 25" fill="none" xmlns="http://www.w3.org/2000/svg">
<path fill-rule="evenodd" clip-rule="evenodd" d="M5.23405 11.7949C5.18627 13.3754 5.69308 14.9227 6.66661 16.1687C7.64013 17.4147 9.01898 18.2807 10.5641 18.6166V16.9231C10.5641 16.3569 10.1046 15.8974 9.53846 15.8974C8.94002 15.8974 8.36609 15.6597 7.94294 15.2365C7.51978 14.8134 7.28205 14.2395 7.28205 13.641V12.8205C7.28205 12.2544 6.82256 11.7949 6.25641 11.7949H5.23405ZM5.38338 10.5641H6.25641C6.85485 10.5641 7.42877 10.8018 7.85193 11.225C8.27509 11.6481 8.51282 12.2221 8.51282 12.8205V13.641C8.51282 14.2072 8.9723 14.6667 9.53846 14.6667C10.1369 14.6667 10.7108 14.9044 11.134 15.3276C11.5571 15.7507 11.7949 16.3246 11.7949 16.9231V18.7659C12.4874 18.787 13.1791 18.7023 13.8461 18.5149V16.9231C13.8461 16.3246 14.0839 15.7507 14.507 15.3276C14.9302 14.9044 15.5041 14.6667 16.1026 14.6667H18.2236C18.5847 13.8241 18.7704 12.9167 18.7692 12C18.7704 11.0833 18.5847 10.1759 18.2236 9.33333H17.7436C17.1774 9.33333 16.7179 9.79282 16.7179 10.359C16.7179 10.9574 16.4802 11.5313 16.0571 11.9545C15.6339 12.3777 15.06 12.6154 14.4615 12.6154C13.8631 12.6154 13.2892 12.3777 12.866 11.9545C12.4429 11.5313 12.2051 10.9574 12.2051 10.359C12.2051 9.79282 11.7456 9.33333 11.1795 9.33333H10.7692C10.062 9.33333 9.38371 9.05238 8.88361 8.55229C8.38351 8.05219 8.10256 7.37391 8.10256 6.66667V6.46482C6.71454 7.44226 5.7441 8.90523 5.38338 10.5641ZM9.33333 5.77641V6.66667C9.33333 7.45928 9.97661 8.10256 10.7692 8.10256H11.1795C11.7779 8.10256 12.3518 8.34029 12.775 8.76345C13.1982 9.18661 13.4359 9.76054 13.4359 10.359C13.4359 10.631 13.544 10.8919 13.7363 11.0842C13.9286 11.2766 14.1895 11.3846 14.4615 11.3846C14.7335 11.3846 14.9944 11.2766 15.1868 11.0842C15.3791 10.8919 15.4872 10.631 15.4872 10.359C15.487 9.79534 15.6977 9.25202 16.0779 8.83596C16.4582 8.41989 16.9804 8.16119 17.5417 8.11077C16.9176 7.22052 16.0881 6.4939 15.1233 5.99254C14.1586 5.49118 13.0872 5.22987 12 5.23077C11.0833 5.2296 10.1759 5.41526 9.33333 5.77641ZM19.168 8.44308C18.5055 7.10843 17.4835 5.98533 16.217 5.20032C14.9505 4.41531 13.49 3.99959 12 4C7.58154 4 4 7.58154 4 12C4 16.4185 7.58154 20 12 20C16.4185 20 20 16.4185 20 12C20.0019 10.7665 19.7173 9.54949 19.1688 8.44472L19.168 8.44308ZM17.5352 15.8974H16.1026C15.5364 15.8974 15.0769 16.3569 15.0769 16.9231V18.0308C16.057 17.5292 16.9005 16.7971 17.5352 15.8974Z" fill="white"/>
</svg>
