<svg width="24" height="25" viewBox="0 0 24 25" fill="none" xmlns="http://www.w3.org/2000/svg">
<path fill-rule="evenodd" clip-rule="evenodd" d="M11.8972 16.3253L16.9804 12.6996C17.5956 12.2608 18.095 11.6773 18.435 10.9999C18.7749 10.3225 18.9453 9.57183 18.9311 8.8131L18.8628 5.14367L15.2162 5.07489C14.4624 5.06076 13.7165 5.2322 13.0435 5.57432C12.3705 5.91643 11.7908 6.41884 11.3547 7.03785L7.75166 12.153L11.8972 16.3253ZM16.2179 14.5608L17.5984 13.5765C18.3555 13.0364 18.9701 12.3182 19.3885 11.4845C19.8069 10.6508 20.0165 9.72685 19.999 8.79304L19.9114 4.08912L15.2355 4.001C14.3078 3.98358 13.3899 4.19448 12.5617 4.61538C11.7335 5.03627 11.02 5.6544 10.4833 6.416L9.50443 7.80583L6.85036 8.01144C6.40745 8.04573 5.98929 8.23056 5.66457 8.53559C5.33984 8.84061 5.12785 9.2477 5.06342 9.68998L4.66473 12.4231C4.4775 13.7097 6.11921 14.3975 6.8945 13.3573L7.1273 13.0449L11.0451 16.9873L10.5794 17.3978C9.62689 18.236 10.3801 19.8035 11.6246 19.5742L14.4111 19.0599C14.8362 18.9814 15.2236 18.7636 15.5128 18.4404C15.8021 18.1172 15.9769 17.7068 16.01 17.2731L16.2179 14.5608ZM15.0845 15.3689L12.0304 17.5482L11.2828 18.2066C11.2507 18.2313 11.2287 18.267 11.2209 18.3069C11.2157 18.3452 11.2221 18.3842 11.2394 18.4187C11.2556 18.4541 11.2822 18.4836 11.3156 18.5032C11.3513 18.522 11.3925 18.5271 11.4316 18.5175L14.2188 18.0032C14.412 17.9674 14.588 17.8683 14.7193 17.7213C14.8507 17.5744 14.93 17.3878 14.945 17.1908L15.0845 15.3689ZM6.93223 9.08247L8.70138 8.94564L6.35913 12.2712L6.36482 12.2769L6.04018 12.7125C6.01768 12.7472 5.98317 12.7722 5.94336 12.7827C5.90505 12.7906 5.86526 12.7863 5.82945 12.7705C5.79275 12.7561 5.7614 12.7306 5.73975 12.6975C5.71927 12.6617 5.71268 12.6196 5.72124 12.5793L6.11992 9.84544C6.14918 9.64451 6.24545 9.45955 6.39292 9.32091C6.54039 9.18227 6.73031 9.0982 6.93152 9.08247H6.93223ZM13.4855 10.0145C13.5836 10.1189 13.7015 10.2024 13.8322 10.2602C13.9628 10.3179 14.1037 10.3487 14.2464 10.3508C14.3892 10.3528 14.5308 10.326 14.6631 10.272C14.7954 10.218 14.9155 10.1378 15.0165 10.0363C15.1174 9.93476 15.1971 9.81388 15.2509 9.68082C15.3046 9.54775 15.3313 9.40519 15.3293 9.26157C15.3274 9.11795 15.2968 8.97618 15.2395 8.84464C15.1822 8.7131 15.0992 8.59446 14.9955 8.49573C14.7936 8.30339 14.525 8.19792 14.2469 8.20175C13.9689 8.20557 13.7033 8.31839 13.5066 8.51622C13.3099 8.71404 13.1977 8.98126 13.1938 9.26106C13.1898 9.54086 13.2945 9.81118 13.4855 10.0145ZM12.7309 10.7746C12.9287 10.9768 13.1642 11.1377 13.4241 11.2478C13.6839 11.3579 13.9628 11.4152 14.2448 11.4163C14.5267 11.4175 14.8061 11.3624 15.0667 11.2543C15.3274 11.1463 15.5643 10.9873 15.7636 10.7867C15.9629 10.5861 16.1208 10.3477 16.2282 10.0853C16.3355 9.82298 16.3902 9.54185 16.389 9.25814C16.3878 8.97443 16.3308 8.69376 16.2213 8.43232C16.1118 8.17089 15.9519 7.93386 15.7509 7.73491C15.3503 7.33182 14.807 7.10536 14.2405 7.10536C13.6741 7.10536 13.1308 7.33182 12.7302 7.73491C12.3296 8.138 12.1046 8.68471 12.1046 9.25477C12.1046 9.82482 12.3303 10.3715 12.7309 10.7746ZM8.66578 16.3511C8.71824 16.3019 8.76032 16.2426 8.7895 16.1767C8.81868 16.1108 8.83438 16.0397 8.83564 15.9675C8.83691 15.8954 8.82372 15.8237 8.79686 15.7568C8.77001 15.6899 8.73004 15.6291 8.67933 15.5781C8.62863 15.5271 8.56824 15.4869 8.50175 15.4598C8.43526 15.4328 8.36405 15.4195 8.29236 15.4208C8.22066 15.4221 8.14996 15.4379 8.08446 15.4672C8.01897 15.4966 7.96002 15.539 7.91114 15.5917L6.21532 17.2982C6.16286 17.3474 6.12078 17.4067 6.0916 17.4726C6.06241 17.5385 6.04672 17.6097 6.04546 17.6818C6.04419 17.754 6.05738 17.8256 6.08424 17.8925C6.11109 17.9595 6.15106 18.0202 6.20176 18.0713C6.25247 18.1223 6.31286 18.1625 6.37935 18.1895C6.44583 18.2165 6.51705 18.2298 6.58874 18.2285C6.66043 18.2273 6.73114 18.2115 6.79664 18.1821C6.86213 18.1527 6.92108 18.1104 6.96996 18.0576L8.66578 16.3511ZM9.37771 17.3828C9.4777 17.4835 9.53387 17.6201 9.53387 17.7625C9.53387 17.9048 9.4777 18.0414 9.37771 18.1421L7.68189 19.8493C7.58114 19.9472 7.44624 20.0013 7.30624 20C7.16624 19.9987 7.03235 19.9421 6.9334 19.8424C6.83445 19.7428 6.77835 19.608 6.7772 19.4671C6.77605 19.3262 6.82994 19.1905 6.92725 19.0892L8.62307 17.3828C8.72318 17.2821 8.85889 17.2256 9.00039 17.2256C9.14188 17.2256 9.27759 17.2821 9.37771 17.3828ZM6.614 15.5502C6.66646 15.501 6.70854 15.4417 6.73772 15.3758C6.7669 15.3099 6.78259 15.2387 6.78386 15.1666C6.78512 15.0944 6.77194 15.0228 6.74508 14.9559C6.71823 14.889 6.67826 14.8282 6.62755 14.7772C6.57685 14.7261 6.51645 14.6859 6.44997 14.6589C6.38348 14.6319 6.31227 14.6186 6.24058 14.6199C6.16888 14.6211 6.09818 14.6369 6.03268 14.6663C5.96718 14.6957 5.90824 14.738 5.85935 14.7908L4.16282 16.4973C4.11185 16.5469 4.0712 16.6062 4.04325 16.6717C4.0153 16.7373 4.0006 16.8078 4.00002 16.8792C3.99944 16.9505 4.01298 17.0213 4.03986 17.0873C4.06674 17.1533 4.10641 17.2133 4.15657 17.2637C4.20672 17.3141 4.26636 17.354 4.33199 17.381C4.39762 17.408 4.46794 17.4215 4.53884 17.4209C4.60973 17.4202 4.67979 17.4054 4.74492 17.3772C4.81005 17.349 4.86895 17.308 4.91818 17.2567L6.614 15.5502Z" fill="white"/>
</svg>
