<svg width="124" height="28" viewBox="0 0 124 28" fill="none" xmlns="http://www.w3.org/2000/svg">
<path fill-rule="evenodd" clip-rule="evenodd" d="M11.5988 12.7135H10.5929C10.5345 12.7152 10.4764 12.7049 10.4221 12.6831C10.3679 12.6613 10.3187 12.6285 10.2777 12.5868C10.2358 12.5449 10.2027 12.4949 10.1803 12.44C10.1579 12.385 10.1468 12.3261 10.1475 12.2667V11.5782C10.0268 10.7503 9.07236 10.3685 8.18468 10.3685C7.9239 10.3694 7.66592 10.4224 7.42587 10.5245C7.18582 10.6265 6.96854 10.7756 6.78676 10.9628C6.41484 11.3461 6.20693 11.8596 6.20726 12.394V15.4059C6.20716 15.9401 6.41532 16.4531 6.7874 16.8358C7.15848 17.2151 7.6611 17.4276 8.18531 17.4276C9.10286 17.4276 10.0839 17.0248 10.1538 16.1377V15.4791C10.1542 15.3622 10.1998 15.25 10.2809 15.166C10.3209 15.1252 10.3685 15.0927 10.4211 15.0704C10.4737 15.0481 10.5301 15.0365 10.5872 15.0362H11.5867C11.7011 15.0362 11.8116 15.0826 11.893 15.166C11.9743 15.2487 12.0201 15.362 12.0201 15.4791V16.2007C11.9565 17.6644 10.9443 18.7933 9.4301 19.1967V20.2232C9.43013 20.3337 9.38704 20.4399 9.31 20.5191C9.27241 20.5578 9.22747 20.5886 9.17782 20.6097C9.12817 20.6308 9.07482 20.6418 9.02089 20.6419H7.358C7.30407 20.6418 7.25072 20.6308 7.20107 20.6097C7.15142 20.5886 7.10648 20.5578 7.06889 20.5191C6.99209 20.4398 6.94922 20.3336 6.94943 20.2232V19.1439C6.18701 18.875 5.52834 18.3728 5.06669 17.7083C4.5995 17.0374 4.3491 16.2391 4.3493 15.4212V12.4093C4.3491 11.5914 4.5995 10.7931 5.06669 10.1222C5.52825 9.45799 6.18667 8.95598 6.94879 8.68718V7.38455C6.94879 7.27382 6.99137 7.16691 7.06825 7.08864C7.10582 7.04988 7.15076 7.01905 7.20041 6.99795C7.25006 6.97686 7.30343 6.96593 7.35737 6.96582H9.0355C9.14352 6.96582 9.24773 7.01037 9.32462 7.08864C9.40087 7.16691 9.44408 7.27318 9.44408 7.38455V8.62546C10.9348 9.02255 11.9495 10.133 12.0315 11.5718V12.2667C12.0321 12.3843 11.987 12.4975 11.9057 12.5824C11.8657 12.6236 11.8179 12.6564 11.7651 12.6789C11.7123 12.7015 11.6562 12.7132 11.5988 12.7135ZM42.7647 12.7135H41.7531C41.6424 12.7109 41.537 12.6655 41.4589 12.5868C41.3797 12.5072 41.3332 12.4007 41.3286 12.2884V11.5998C41.2079 10.7719 40.2567 10.3907 39.3658 10.3907C39.1053 10.3916 38.8475 10.4445 38.6077 10.5465C38.3679 10.6484 38.1508 10.7973 37.9692 10.9845C37.5975 11.3678 37.39 11.8813 37.391 12.4156V15.4275C37.391 15.964 37.5994 16.4775 37.9692 16.8575C38.3403 17.2367 38.8423 17.4493 39.3658 17.4493C40.284 17.4493 41.2683 17.0465 41.335 16.1594V15.502C41.3357 15.3846 41.3819 15.2721 41.464 15.1883C41.504 15.1473 41.5517 15.1148 41.6044 15.0925C41.6571 15.0702 41.7137 15.0586 41.7709 15.0585H42.7679C42.8252 15.0579 42.8821 15.069 42.9351 15.0911C42.9881 15.1132 43.036 15.1458 43.076 15.187C43.117 15.2285 43.1493 15.2777 43.1712 15.3318C43.1932 15.3858 43.2042 15.4437 43.2038 15.502V16.1995C43.1434 17.6631 42.1318 18.7926 40.6176 19.1961V20.2225C40.617 20.3329 40.5737 20.4387 40.4969 20.5178C40.4593 20.5564 40.4145 20.5872 40.365 20.6084C40.3155 20.6296 40.2623 20.6408 40.2084 20.6413H38.5423C38.4885 20.6408 38.4353 20.6297 38.3858 20.6085C38.3362 20.5873 38.2914 20.5565 38.2539 20.5178C38.177 20.4388 38.1337 20.3329 38.1331 20.2225V19.1433C37.3711 18.8744 36.7127 18.3724 36.251 17.7083C35.7841 17.0373 35.5339 16.239 35.5343 15.4212V12.4093C35.5341 11.5914 35.7845 10.7931 36.2517 10.1222C36.7131 9.45813 37.3713 8.95614 38.1331 8.68718V7.38455C38.1337 7.27418 38.177 7.16834 38.2539 7.08928C38.2914 7.05062 38.3362 7.01981 38.3858 6.99862C38.4353 6.97743 38.4885 6.96628 38.5423 6.96582H40.2084C40.3164 6.96646 40.42 7.011 40.4963 7.08928C40.5731 7.16834 40.6164 7.27418 40.617 7.38455V8.62546C42.1077 9.02255 43.1193 10.133 43.2006 11.5718V12.2667C43.2006 12.3844 43.155 12.4976 43.0735 12.5824C43.0332 12.6236 42.9852 12.6563 42.9322 12.6788C42.8792 12.7013 42.8223 12.7131 42.7647 12.7135Z" fill="#51CDCB"/>
<path fill-rule="evenodd" clip-rule="evenodd" d="M12.7552 23.9847H3.49338C3.16472 23.9837 2.83958 23.917 2.53701 23.7885C2.23444 23.66 1.96053 23.4723 1.73137 23.2364C1.2621 22.7534 0.999671 22.1061 1 21.4323V6.15954C0.9995 5.48578 1.26169 4.83845 1.73073 4.35545C1.95992 4.11933 2.2339 3.93144 2.53659 3.80282C2.83928 3.6742 3.16457 3.60744 3.49338 3.60645H12.7565C13.0852 3.60752 13.4104 3.67433 13.7129 3.80295C14.0155 3.93156 14.2894 4.1194 14.5185 4.35545C14.9875 4.83849 15.2497 5.48579 15.2492 6.15954V21.4323C15.2497 22.106 14.9875 22.7533 14.5185 23.2364C14.2893 23.4723 14.0154 23.66 13.7129 23.7885C13.4103 23.917 13.0851 23.9837 12.7565 23.9847H12.7552ZM3.49338 4.97145C3.34046 4.97208 3.1892 5.00325 3.04846 5.06313C2.90772 5.123 2.78031 5.21039 2.67369 5.32017C2.45701 5.5429 2.33438 5.84454 2.33374 6.15954V21.4323C2.33374 21.7466 2.45701 22.0483 2.67432 22.2704C2.89164 22.4924 3.18647 22.6172 3.49401 22.6172H12.7552C12.9078 22.6168 13.0587 22.5859 13.1992 22.5262C13.3396 22.4665 13.4667 22.3793 13.573 22.2697C13.7903 22.0476 13.9123 21.7466 13.9123 21.4323V6.15954C13.9123 5.84517 13.7903 5.5429 13.5736 5.32017C13.4672 5.21043 13.3401 5.12306 13.1995 5.06317C13.059 5.00329 12.9079 4.97211 12.7552 4.97145H3.49338ZM44.1435 23.9847H34.8772C34.5488 23.9837 34.2238 23.917 33.9215 23.7885C33.6191 23.66 33.3454 23.4723 33.1165 23.2364C32.6477 22.7533 32.3859 22.1059 32.387 21.4323V6.15954C32.387 5.48308 32.6495 4.83399 33.1165 4.35545C33.3453 4.11949 33.6188 3.93169 33.9211 3.80307C34.2233 3.67445 34.5482 3.6076 34.8766 3.60645H44.1429C44.4714 3.60751 44.7964 3.67432 45.0988 3.80294C45.4011 3.93157 45.6748 4.11941 45.9036 4.35545C46.3722 4.83861 46.6337 5.486 46.6325 6.15954V21.4323C46.6337 22.1058 46.3722 22.7532 45.9036 23.2364C45.6747 23.4723 45.401 23.66 45.0987 23.7885C44.7963 23.917 44.472 23.9837 44.1435 23.9847ZM34.8772 4.97145C34.7245 4.97219 34.5734 5.00347 34.4329 5.06347C34.2923 5.12346 34.1652 5.21095 34.0588 5.32081C33.8415 5.54354 33.7201 5.84517 33.7201 6.15954V21.4323C33.7201 21.746 33.8428 22.047 34.0595 22.2691C34.2768 22.4912 34.5703 22.6165 34.8772 22.6172H44.1429C44.4498 22.6172 44.744 22.4924 44.9613 22.2697C45.178 22.0476 45.3 21.7466 45.3 21.4323V6.15954C45.3 5.84517 45.178 5.54354 44.9613 5.32081C44.855 5.21095 44.7278 5.12346 44.5873 5.06347C44.4467 5.00347 44.2957 4.97219 44.1429 4.97145H34.8772ZM19.1716 23.9847H28.4487C28.7763 23.9822 29.1002 23.9144 29.4013 23.7851C29.7024 23.6558 29.9748 23.4678 30.2025 23.2319C30.6684 22.7491 30.9282 22.1036 30.9269 21.4323V6.15954C30.9281 5.486 30.6666 4.83861 30.198 4.35545C29.9692 4.11941 29.6955 3.93157 29.3932 3.80294C29.0908 3.67432 28.7658 3.60751 28.4373 3.60645H19.1716C18.843 3.60743 18.5179 3.67419 18.2154 3.80282C17.913 3.93145 17.6392 4.11934 17.4103 4.35545C16.9417 4.83861 16.6802 5.486 16.6814 6.15954V21.4323C16.6814 22.1087 16.9439 22.7572 17.4103 23.2364C17.6392 23.4723 17.9129 23.66 18.2152 23.7885C18.5176 23.917 18.8432 23.9837 19.1716 23.9847ZM18.3647 5.32017C18.582 5.09745 18.8762 4.97208 19.1837 4.97145H28.4494C28.7563 4.97208 29.0511 5.09808 29.2678 5.32081C29.4845 5.54354 29.6065 5.84517 29.6065 6.15954V21.4323C29.6065 21.7466 29.4845 22.0476 29.2678 22.2697C29.0505 22.4924 28.7563 22.6172 28.4494 22.6172H19.1837C19.0311 22.6165 18.8802 22.5854 18.7398 22.5256C18.5994 22.4658 18.4723 22.3786 18.3659 22.2691C18.1485 22.0449 18.0268 21.7448 18.0266 21.4323V6.15954C18.0266 5.84517 18.148 5.54354 18.3653 5.32081L18.3647 5.32017Z" fill="#6D3DFF"/>
<path fill-rule="evenodd" clip-rule="evenodd" d="M61.5298 11.1378C61.55 11.535 61.5287 11.9332 61.4663 12.3259C61.4491 12.4277 61.4269 12.5295 61.3996 12.6294C61.2145 13.1415 60.9017 13.5975 60.4909 13.9544C59.7438 14.5343 58.8139 14.8269 57.8698 14.7791C55.447 14.7791 54.0834 13.3835 54.0834 11.057V7.93372C54.0834 5.62308 55.447 4.21162 57.8705 4.21162C58.6983 4.17816 59.5171 4.39431 60.2209 4.83208C60.633 5.1143 60.9689 5.49424 61.1989 5.93803C61.4288 6.38182 61.5456 6.87569 61.5387 7.37562V7.78162C61.5392 7.89656 61.4947 8.00712 61.4148 8.08962C61.3756 8.12962 61.3288 8.16136 61.2772 8.183C61.2256 8.20464 61.1702 8.21573 61.1143 8.21562H60.2971C60.2411 8.2157 60.1857 8.20446 60.1342 8.18259C60.0827 8.16072 60.0361 8.12867 59.9972 8.08835C59.9168 8.00661 59.8721 7.89633 59.8727 7.78162V7.39981C59.8603 7.11405 59.7647 6.83817 59.5975 6.60626C59.4781 6.44537 59.3314 6.30667 59.1642 6.19644C58.773 5.96571 58.3241 5.85178 57.8705 5.86808C56.5043 5.86808 55.7501 6.58081 55.7501 7.89362V11.0474C55.7501 12.3596 56.5075 13.0889 57.8705 13.0889H58.1735C58.6226 13.0582 59.0488 12.8791 59.3853 12.5798C59.5429 12.4296 59.6719 12.2508 59.7665 12.0529C59.8619 11.7583 59.8943 11.4464 59.8638 11.1378C59.8634 11.0231 59.9079 10.9128 59.9877 10.8304C60.0267 10.7903 60.0733 10.7583 60.1248 10.7365C60.1763 10.7146 60.2316 10.7033 60.2876 10.7032H61.1054C61.1613 10.7033 61.2167 10.7146 61.2682 10.7365C61.3197 10.7583 61.3663 10.7903 61.4053 10.8304C61.4853 10.9126 61.53 11.023 61.5298 11.1378ZM101.092 7.09944C101.092 5.38762 100.074 4.43181 98.3662 4.43181L94.71 4.45344C94.3796 4.45344 94.2468 4.58072 94.2468 4.93708V14.1001C94.2468 14.4564 94.3796 14.5837 94.71 14.5837H98.4571C100.244 14.5837 101.435 13.5477 101.435 11.792C101.435 10.4804 100.996 9.6519 100.087 9.31081V9.25481C100.759 8.82717 101.092 8.11381 101.092 7.09944ZM99.3778 7.35653C99.3778 8.19717 98.9749 8.61272 98.166 8.61272H95.9033V6.10035H98.166C98.9692 6.10035 99.3778 6.5159 99.3778 7.35653ZM95.9033 10.238H98.4056C99.2386 10.238 99.6624 10.7127 99.6624 11.5807C99.6624 12.45 99.2386 12.8935 98.4056 12.8935H95.9033V10.238ZM84.0293 5.88653C84.0293 5.55753 83.9238 5.45826 83.6207 5.45826L82.9059 5.46462C82.5996 5.46462 82.4941 5.5639 82.4941 5.8929V7.17708H81.5848C81.2792 7.17708 81.1883 7.27635 81.1883 7.60472V8.26272C81.1883 8.5879 81.2824 8.70308 81.5848 8.70308H82.4941V11.6278C82.4941 12.8407 82.7299 13.6934 83.1817 14.1402C83.6328 14.5869 84.4144 14.8007 85.5257 14.7606C85.844 14.7447 85.9502 14.6461 85.9502 14.3012V13.647C85.9502 13.3027 85.8288 13.2034 85.5257 13.2034C84.9532 13.2034 84.5599 13.1074 84.3476 12.8935C84.1354 12.6791 84.0293 12.2355 84.0293 11.5654V8.69735H85.5441C85.8498 8.69735 85.9559 8.5669 85.9559 8.25699V7.59899C85.9559 7.26999 85.8472 7.17072 85.5441 7.17072H84.0293V5.88653ZM66.4518 7.40044C66.4518 7.05617 66.3431 6.9569 66.04 6.9569L65.6187 6.95053C64.7806 6.95053 63.9476 7.09499 63.1565 7.37817C62.9846 7.42189 62.8359 7.52981 62.7409 7.67981C62.6446 7.83148 62.6081 8.01366 62.6386 8.19081V14.1122C62.6386 14.4412 62.7473 14.5557 63.0504 14.5557H63.7773C64.0829 14.5557 64.1738 14.4412 64.1738 14.1122V8.8049C64.1738 8.70626 64.2132 8.63435 64.3072 8.63435C64.7148 8.51141 65.1392 8.45385 65.5647 8.46381H66.04C66.3456 8.46381 66.4518 8.34926 66.4518 8.02026V7.40044ZM73.198 7.59835C73.198 7.26999 73.0887 7.17072 72.7856 7.17072L72.0707 7.14526C71.7677 7.14526 71.6622 7.24517 71.6622 7.57353V12.6823C71.2173 12.8076 70.7581 12.8743 70.296 12.8808C69.3327 12.8808 68.8543 12.4004 68.8543 11.4694V7.57353C68.8543 7.24517 68.7602 7.1459 68.4571 7.1459H67.7302C67.4246 7.1459 67.3185 7.24517 67.3185 7.57353V11.5254C67.3185 13.3676 68.2328 14.3947 70.087 14.3947C70.6179 14.3887 71.1464 14.3221 71.6622 14.1962V14.8656C71.6622 15.9016 71.1983 16.4171 70.2566 16.4171C69.9814 16.4398 69.7055 16.3835 69.4611 16.2548C69.215 16.1248 69.0099 15.9286 68.8689 15.6884C68.6694 15.3868 68.5086 15.3467 68.2055 15.5173L67.7029 15.8272C67.3973 15.9824 67.3458 16.2306 67.5301 16.5412C68.0486 17.4531 68.9718 17.9087 70.284 17.9087C72.2887 17.9087 73.198 16.7639 73.198 14.8071V7.59899V7.59835ZM77.7291 6.9569C79.5954 6.9569 80.5218 7.97062 80.5218 9.83835V11.7952C80.5218 13.7774 79.5439 14.7759 77.5716 14.7759C77.0992 14.7487 76.6322 14.6623 76.1813 14.5188V17.2603C76.1813 17.5861 76.0872 17.7006 75.7848 17.7006H75.0547C74.7516 17.7006 74.6455 17.5861 74.6455 17.2603V8.18508C74.614 8.00776 74.6498 7.82508 74.7459 7.67281C74.8412 7.52135 74.9899 7.41253 75.1608 7.36926C75.9845 7.07576 76.855 6.93599 77.7291 6.9569ZM78.986 9.88162C78.986 8.95126 78.4954 8.47017 77.5048 8.47017C77.1018 8.46588 76.7001 8.51815 76.3115 8.62544C76.2727 8.6382 76.239 8.66318 76.2156 8.69667C76.1921 8.73016 76.18 8.77036 76.1813 8.81126V13.0482C76.5987 13.1754 77.0302 13.248 77.4654 13.2626C78.4834 13.2626 78.9803 12.7504 78.9803 11.7366L78.986 9.88162ZM86.7559 9.81035C86.7559 8.02662 87.8551 6.9569 89.8002 6.9569C91.7445 6.9569 92.859 8.02662 92.859 9.81035V11.9224C92.859 13.7062 91.7598 14.7759 89.8002 14.7759C87.8399 14.7759 86.7559 13.7062 86.7559 11.9224V9.81035ZM91.3232 9.81035C91.3232 8.93853 90.766 8.4549 89.809 8.4549C88.8521 8.4549 88.2942 8.93853 88.2942 9.81035V11.9224C88.2942 12.7784 88.8369 13.2779 89.809 13.2779C90.7812 13.2779 91.3232 12.7784 91.3232 11.9224V9.81035ZM102.47 9.81035C102.47 8.02662 103.57 6.9569 105.518 6.9569C107.465 6.9569 108.574 8.02662 108.574 9.81035V11.9224C108.574 13.7062 107.474 14.7759 105.518 14.7759C103.561 14.7759 102.47 13.7062 102.47 11.9224V9.81035ZM107.038 9.81035C107.038 8.93853 106.484 8.4549 105.524 8.4549C104.563 8.4549 104.009 8.93853 104.009 9.81035V11.9224C104.009 12.7784 104.551 13.2779 105.524 13.2779C106.496 13.2779 107.038 12.7784 107.038 11.9224V9.81035ZM115.335 8.4829C114.871 7.47108 113.921 6.9569 112.503 6.9569C110.716 6.9569 109.776 7.84081 109.774 9.25481C109.757 9.54117 109.797 9.82817 109.893 10.098C109.988 10.3678 110.136 10.6154 110.328 10.8247C110.51 10.9927 110.722 11.1232 110.952 11.2091C111.428 11.4015 111.932 11.5167 112.445 11.5502C113.624 11.6806 114.036 11.8448 114.036 12.4653C114.036 13.0202 113.572 13.3053 112.633 13.3053C111.836 13.3053 111.334 13.0482 111.137 12.5213C111.015 12.1923 110.858 12.1363 110.594 12.2514L109.989 12.45C109.896 12.4718 109.814 12.5254 109.757 12.6016C109.699 12.6777 109.671 12.7716 109.675 12.8668C109.678 12.9302 109.695 12.9922 109.725 13.0482C110.134 14.2051 111.127 14.7759 112.675 14.7759C114.517 14.7759 115.535 13.8328 115.535 12.394C115.535 10.7935 114.635 10.2813 112.836 10.0954C111.682 9.9809 111.285 9.83199 111.285 9.21153C111.285 8.69608 111.697 8.43899 112.53 8.43899C113.233 8.43899 113.708 8.68399 113.96 9.18353C114.132 9.48135 114.214 9.50935 114.517 9.38208L115.123 9.12499C115.185 9.10451 115.241 9.06968 115.287 9.02334C115.332 8.977 115.367 8.92047 115.386 8.85835C115.407 8.79602 115.413 8.72972 115.405 8.6646C115.396 8.59949 115.372 8.53731 115.335 8.4829ZM119.173 6.9569C120.591 6.9569 121.544 7.47172 122.008 8.4829C122.063 8.56514 122.088 8.66369 122.079 8.76213C122.07 8.86056 122.027 8.95292 121.959 9.02381C121.913 9.06989 121.857 9.10455 121.796 9.12499L121.19 9.38208C120.887 9.50935 120.805 9.48135 120.632 9.18353C120.381 8.68399 119.906 8.43899 119.203 8.43899C118.37 8.43899 117.961 8.69672 117.961 9.21153C117.961 9.83199 118.358 9.9809 119.509 10.0961C121.308 10.2819 122.208 10.7935 122.208 12.3934C122.208 13.8328 121.19 14.7759 119.351 14.7759C117.8 14.7759 116.807 14.2051 116.398 13.0482C116.368 12.9927 116.351 12.931 116.348 12.8679C116.345 12.8047 116.357 12.7418 116.383 12.684C116.408 12.6262 116.447 12.575 116.495 12.5345C116.543 12.4939 116.6 12.465 116.662 12.45L117.267 12.2514C117.531 12.1369 117.692 12.1923 117.81 12.5213C118.009 13.0482 118.512 13.3059 119.306 13.3059C120.245 13.3059 120.709 13.0202 120.709 12.4653C120.709 11.8448 120.3 11.6806 119.121 11.5502C118.608 11.5163 118.103 11.4012 117.625 11.2091C117.4 11.1217 117.194 10.9911 117.019 10.8247C116.826 10.6145 116.678 10.3675 116.582 10.0986C116.486 9.82819 116.445 9.54132 116.462 9.25481C116.446 7.84081 117.385 6.9569 119.173 6.9569ZM57.5947 21.1809C57.5665 21.0149 57.4783 20.8652 57.3469 20.7603C57.2167 20.6566 57.052 20.6064 56.8862 20.6196C56.4109 20.6196 56.0868 21.0473 56.0868 21.6957C56.0868 22.3442 56.4173 22.7693 56.8919 22.7693C57.0559 22.7852 57.2192 22.7374 57.3501 22.6369C57.4809 22.5357 57.5705 22.3887 57.601 22.2233H58.0312C57.9963 22.5033 57.859 22.7578 57.6468 22.9379C57.4346 23.1174 57.1639 23.2084 56.8894 23.1912C56.1409 23.1912 55.6414 22.6204 55.6414 21.6957C55.6414 20.7717 56.1383 20.1977 56.883 20.1977C57.1601 20.1824 57.4327 20.2754 57.6455 20.458C57.8578 20.6406 57.995 20.899 58.028 21.1809H57.5947ZM62.4594 21.4819C61.7992 21.5252 61.439 21.823 61.439 22.3283C61.4369 22.45 61.4604 22.5707 61.5079 22.6828C61.5554 22.7948 61.6259 22.8956 61.7147 22.9786C61.8029 23.0597 61.9076 23.1207 62.0216 23.1574C62.1355 23.1941 62.2561 23.2056 62.3749 23.1912C62.5554 23.195 62.7339 23.1466 62.8896 23.0518C63.0447 22.9564 63.1711 22.8189 63.2531 22.6541V23.1632H63.6712V21.1465C63.6712 20.57 63.2562 20.1977 62.6113 20.1977C62.4871 20.1867 62.362 20.2004 62.2432 20.2382C62.1244 20.276 62.0143 20.3371 61.9193 20.4179C61.725 20.5835 61.6026 20.8183 61.5781 21.0727H61.993C62.0227 20.9354 62.1007 20.8134 62.2129 20.7291C62.3237 20.646 62.4614 20.607 62.5992 20.6196C63.0021 20.6196 63.2232 20.8214 63.2232 21.1873V21.4323L62.4594 21.4819ZM63.2232 21.8109V22.0464C63.2213 22.2463 63.1405 22.4374 62.9983 22.5777C62.9283 22.6457 62.8454 22.6988 62.7544 22.7338C62.6635 22.7688 62.5663 22.7849 62.469 22.7814C62.1233 22.7814 61.9054 22.6108 61.9054 22.3283C61.9054 22.0464 62.1023 21.8847 62.5109 21.8574L63.2232 21.8109ZM68.3212 20.2009C68.4405 20.1891 68.5609 20.2016 68.6753 20.2377C68.7896 20.2738 68.8955 20.3327 68.9864 20.4109C69.1728 20.5705 69.2894 20.7969 69.3111 21.0415H68.8905C68.8705 20.9039 68.7978 20.7795 68.6878 20.6947C68.634 20.6534 68.5725 20.6233 68.5069 20.6061C68.4413 20.589 68.373 20.5851 68.3059 20.5948C67.9698 20.5948 67.7423 20.7654 67.7423 21.0224C67.7423 21.2216 67.891 21.3546 68.203 21.4386L68.6179 21.55C69.1688 21.6989 69.3658 21.9064 69.3658 22.3346C69.3658 22.8374 68.9204 23.1912 68.2907 23.1912C67.6603 23.1912 67.2791 22.8469 67.2365 22.3384H67.6787C67.7239 22.6484 67.9482 22.7998 68.3212 22.7998C68.6935 22.7998 68.9267 22.6324 68.9267 22.369C68.9267 22.1609 68.8149 22.0584 68.5029 21.9655L68.0238 21.8319C67.5485 21.6957 67.3153 21.4386 67.3153 21.0479C67.3121 20.5515 67.727 20.2009 68.3212 20.2009ZM72.9775 19.3081C72.9437 19.3518 72.9234 19.4044 72.919 19.4595C72.9164 19.4984 72.9215 19.5374 72.9342 19.5742C72.9469 19.6109 72.9669 19.6448 72.9929 19.6737C73.0189 19.7026 73.0505 19.726 73.0857 19.7425C73.121 19.7589 73.1591 19.7681 73.198 19.7694C73.2521 19.7693 73.3049 19.7532 73.3498 19.723C73.3956 19.6923 73.4314 19.649 73.453 19.5982C73.4746 19.5475 73.4809 19.4915 73.4712 19.4373C73.4629 19.3832 73.439 19.3327 73.4024 19.292C73.3658 19.2513 73.3182 19.2221 73.2653 19.2082C73.2129 19.1945 73.1575 19.1967 73.1063 19.2145C73.0551 19.2322 73.0103 19.2648 72.9775 19.3081ZM73.4191 20.2353H72.9794V23.1721H73.4191V20.2353ZM77.1477 20.2257H77.5627V20.7004C77.6446 20.535 77.773 20.3988 77.9312 20.3084C78.0888 20.2187 78.2699 20.1786 78.4503 20.1945C79.0559 20.1945 79.4225 20.6101 79.4225 21.277V23.16H78.9834V21.3578C78.9834 20.8805 78.7502 20.6164 78.3201 20.6164C78.2152 20.6153 78.1114 20.6369 78.0156 20.6798C77.9199 20.7226 77.8345 20.7857 77.7654 20.8646C77.6944 20.9441 77.641 21.0376 77.6087 21.1392C77.5764 21.2407 77.5659 21.348 77.5779 21.4539V23.1594H77.1357L77.1477 20.2257ZM84.2504 20.1977C83.4841 20.1977 82.9936 20.7806 82.9936 21.6957C82.9936 22.6044 83.4841 23.1912 84.2504 23.1912C85.0167 23.1912 85.5047 22.6108 85.5047 21.6957C85.5047 20.7806 85.0167 20.1977 84.2504 20.1977ZM84.2504 20.6196C84.7568 20.6196 85.0593 21.0199 85.0593 21.6957C85.0593 22.369 84.7594 22.7693 84.2504 22.7693C83.7421 22.7693 83.439 22.3684 83.439 21.6957C83.439 21.0224 83.7446 20.6196 84.2504 20.6196Z" fill="white"/>
<path d="M27.4804 16.0473C27.4804 14.7173 27.0197 13.8767 26.099 13.5197V13.4605C26.7897 13.0201 27.1283 12.2915 27.1283 11.2555C27.1283 9.62705 26.2413 8.66869 24.7055 8.53824V7.24515C24.7055 7.1346 24.6624 7.02841 24.5854 6.94924C24.5478 6.91051 24.5029 6.87969 24.4532 6.8586C24.4036 6.83751 24.3502 6.82657 24.2963 6.82642H22.6309C22.577 6.82625 22.5236 6.83706 22.474 6.85817C22.4244 6.87928 22.3797 6.91026 22.3424 6.94924C22.2657 7.02844 22.2234 7.13483 22.2248 7.24515V8.52296H20.5855C20.2468 8.52296 20.1133 8.65342 20.1133 9.01933V18.3993C20.1133 18.7646 20.2468 18.8951 20.5861 18.8951H22.2248V20.08C22.2248 20.1901 22.2674 20.2963 22.3437 20.374C22.4199 20.4516 22.5228 20.4955 22.6302 20.4955H24.2963C24.4043 20.4955 24.5079 20.4516 24.5848 20.374C24.6616 20.2954 24.7049 20.1899 24.7055 20.08V18.8951C26.383 18.7869 27.4804 17.7566 27.4804 16.0473ZM21.8277 10.2322H24.1482C24.9749 10.2322 25.3937 10.6535 25.3937 11.5158C25.3937 12.3781 24.9749 12.8031 24.1482 12.8031H21.8277V10.2322ZM24.3903 17.1858H21.8277V14.4685H24.3903C25.2443 14.4685 25.6777 14.9216 25.6777 15.8431C25.6777 16.7639 25.2443 17.1921 24.3903 17.1921V17.1858Z" fill="#EEC546"/>
</svg>
